<svg width="904" height="490" viewBox="0 0 904 490" fill="none" xmlns="http://www.w3.org/2000/svg">
<path d="M397.672 78.9174L338.172 44.772L338.664 43.9161L398.164 78.0614L397.672 78.9174Z" fill="#FFFAEF"/>
<path d="M129.921 154.537L129.431 153.681L243.731 88.088L244.221 88.9427L129.921 154.537" fill="#FFFAEF"/>
<path d="M197.096 159.328H329.24V27.1837H197.096V159.328Z" fill="#FFFAEF"/>
<path d="M209.129 147.296H317.208V39.2163H209.129V147.296Z" fill="#B5A8DB"/>
<path d="M253.781 60.4441C253.781 66.7721 248.652 71.9027 242.323 71.9027C235.993 71.9027 230.864 66.7721 230.864 60.4441C230.864 54.1147 235.993 48.984 242.323 48.984C248.652 48.984 253.781 54.1147 253.781 60.4441Z" fill="#2B2D70"/>
<path d="M317.208 95.7613C313.153 95.6467 309.085 95.9934 305.132 96.848C293.933 99.2734 284.211 105.228 273.848 109.696C253.933 118.284 231.048 121.371 209.129 118.501V147.296H317.208V95.7613Z" fill="#5548A6"/>
<path d="M317.208 112.347C313.808 112.483 310.433 112.896 307.152 113.641C299.448 115.389 292.125 118.896 284.123 118.672C276.117 118.448 269.077 114.515 262.957 110.389C256.837 106.263 250.847 101.667 243.253 99.6294C231.725 96.5374 218.956 100.108 209.129 105.967V147.296H317.208V112.347" fill="#2B2D70"/>
<path d="M311.924 60.092H311.909C311.756 52.6734 305.705 46.7027 298.249 46.7027C292.368 46.7027 287.369 50.4214 285.437 55.6307C284.28 55.1254 283.004 54.8414 281.66 54.8414C276.429 54.8414 272.189 59.0827 272.189 64.312L272.196 64.436C271.791 64.3574 271.373 64.312 270.944 64.312C268.141 64.312 265.764 66.1 264.869 68.5947H322.613C321.489 63.7254 317.135 60.092 311.924 60.092Z" fill="#FFFAEF"/>
<path d="M237.025 84.5267C235.476 84.5267 234.007 84.8627 232.677 85.4547C231.896 82.5401 229.243 80.3894 226.08 80.3894C225.477 80.3894 224.897 80.4761 224.341 80.6214C222.992 74.9281 217.888 70.6867 211.783 70.6867C205.861 70.6867 200.884 74.6747 199.356 80.1067C199.192 80.1001 199.031 80.0828 198.864 80.0828C192.823 80.0828 187.837 84.5521 187.001 90.3627H246.549C244.776 86.9001 241.183 84.5267 237.025 84.5267Z" fill="#FFFAEF"/>
<path d="M209.129 105.967V90.3627H213.325V103.697C211.879 104.403 210.476 105.163 209.129 105.967ZM209.129 70.96V39.216H317.208V43.4134H213.325V70.7787C212.82 70.7187 212.305 70.6867 211.783 70.6867C210.872 70.6867 209.985 70.7813 209.129 70.96" fill="#786BBC"/>
<path d="M213.325 147.296H209.129V105.967C210.476 105.163 211.879 104.403 213.325 103.697V147.296" fill="#262861"/>
<path d="M213.325 90.3627H209.129V70.9601C209.985 70.7814 210.872 70.6867 211.783 70.6867C212.305 70.6867 212.82 70.7187 213.325 70.7787V90.3627Z" fill="#B4A3D8"/>
<path d="M342.395 32.8507C342.395 46.3653 331.439 57.32 317.925 57.32C304.411 57.32 293.456 46.3653 293.456 32.8507C293.456 19.3373 304.411 8.3827 317.925 8.3827C331.439 8.3827 342.395 19.3373 342.395 32.8507Z" fill="#D88918"/>
<path d="M341 32.8507C341 46.376 330.035 57.34 316.511 57.34C302.985 57.34 292.021 46.376 292.021 32.8507C292.021 19.3253 302.985 8.36135 316.511 8.36135C330.035 8.36135 341 19.3253 341 32.8507Z" fill="#F6EA14"/>
<path d="M302.097 18.4373C310.057 10.476 322.963 10.476 330.924 18.4373C338.884 26.3973 338.884 39.304 330.924 47.264C322.963 55.2253 310.057 55.2253 302.097 47.264C294.136 39.304 294.136 26.3973 302.097 18.4373Z" fill="#ED9B11"/>
<path d="M304.179 19.5334C310.989 12.7214 322.032 12.7214 328.843 19.5334C335.653 26.344 335.653 37.3867 328.843 44.1974C322.032 51.008 310.989 51.008 304.179 44.1974C297.368 37.3867 297.368 26.344 304.179 19.5334Z" fill="#F1A814"/>
<path d="M311.955 40.8842H309.121L304.381 33.7085V40.8842H301.547V29.2507H304.381L309.121 36.4595V29.2507H311.955V40.8842ZM321.582 29.2507V31.5211H316.843V33.9737H320.389V36.1777H316.843V40.8842H314.009V29.2507H321.582ZM331.44 29.2507V31.5211H328.358V40.8842H325.524V31.5211H322.442V29.2507H331.44Z" fill="#F8EE21"/>
<path d="M589.832 373.981L480.403 311.183L480.895 310.328L590.324 373.128L589.832 373.981Z" fill="#FFFAEF"/>
<path d="M806.596 313.479L550.181 166.328L550.673 165.472L807.088 312.624L806.596 313.479" fill="#FFFAEF"/>
<path d="M557.423 136.045L556.884 135.219L705.88 38.2387L706.419 39.0667L557.423 136.045" fill="#FFFAEF"/>
<path d="M741.564 182.111L741.024 181.284L844.293 114.068L844.832 114.895L741.564 182.111" fill="#FFFAEF"/>
<path d="M763.739 341.696L763.199 340.869L806.572 312.639L807.112 313.464L763.739 341.696Z" fill="#FFFAEF"/>
<path d="M844.069 222.804H845.056V114.481H844.069V222.804Z" fill="#FFFAEF"/>
<path d="M806.349 318.572H807.336V224.514H806.349V318.572Z" fill="#FFFAEF"/>
<path d="M442.159 470.372L441.667 469.615L589.832 373.176L590.324 373.933L442.159 470.372" fill="#FFFAEF"/>
<path d="M438.164 468.479L248.233 359.481L248.724 358.628L438.656 467.625L438.164 468.479Z" fill="#FFFAEF"/>
<path d="M440.844 454.949L428.211 462.2L440.844 469.448L453.475 462.2L440.844 454.949Z" fill="#B5A8DB"/>
<path d="M453.475 462.2L440.844 469.448V484.92L453.475 477.671V462.2Z" fill="#2B2D70"/>
<path d="M428.211 462.2L440.844 469.448V484.92L428.211 477.671V462.2Z" fill="#FFFAEF"/>
<path d="M746.271 440.709L745.732 439.884L806.349 400.428V318.572H807.336V400.963L746.271 440.709" fill="#FFFAEF"/>
<path d="M750.209 434.277L674.96 391.095L675.453 390.241L750.701 433.423L750.209 434.277" fill="#FFFAEF"/>
<path d="M752.889 420.748L740.257 427.999L752.889 435.248L765.521 427.999L752.889 420.748Z" fill="#B5A8DB"/>
<path d="M765.521 427.999L752.889 435.248V450.719L765.521 443.469V427.999Z" fill="#2B2D70"/>
<path d="M740.257 427.999L752.889 435.248V450.719L740.257 443.469V427.999Z" fill="#FFFAEF"/>
<path d="M590.324 373.981L589.832 373.128L687.68 316.976L688.172 317.829L590.324 373.981" fill="#FFFAEF"/>
<path d="M589.584 444.875H590.572V203.201H589.584V444.875Z" fill="#FFFAEF"/>
<path d="M397.424 130.385H398.411V93.9599H397.424V130.385Z" fill="#FFFAEF"/>
<path d="M490.649 139.436L397.648 78.9027L398.188 78.076L491.188 138.609L490.649 139.436Z" fill="#FFFAEF"/>
<path d="M397.917 63.9894L385.287 71.2401L397.917 78.4894L410.549 71.2401L397.917 63.9894Z" fill="#B5A8DB"/>
<path d="M410.549 71.24L397.917 78.4894V93.96L410.549 86.7107V71.24" fill="#2B2D70"/>
<path d="M385.287 71.24L397.917 78.4894V93.96L385.287 86.7107V71.24" fill="#FFFAEF"/>
<path d="M151.16 438.633L150.669 437.779L285.796 360.233L286.287 361.088L151.16 438.633Z" fill="#FFFAEF"/>
<path d="M78.3912 391.809H79.3766V310.604H78.3912V391.809Z" fill="#FFFAEF"/>
<path d="M84.1473 389.356L83.6568 388.501L240.677 298.391L241.168 299.245L84.1473 389.356" fill="#FFFAEF"/>
<path d="M327.348 283.36L73.05 117.841L73.5875 117.015L327.885 282.535L327.348 283.36Z" fill="#FFFAEF"/>
<path d="M624.761 402.257H756.907V270.11H624.761V402.257Z" fill="#FFFAEF"/>
<path d="M636.793 390.223H744.874V282.144H636.793V390.223Z" fill="#B5A8DB"/>
<path d="M766.667 382.695L766.652 382.696C766.499 375.276 760.448 369.305 752.992 369.305C747.111 369.305 742.112 373.024 740.18 378.233C739.021 377.728 737.745 377.444 736.403 377.444C731.172 377.444 726.932 381.685 726.932 386.916L726.939 387.039C726.532 386.959 726.116 386.916 725.687 386.916C722.884 386.916 720.507 388.701 719.612 391.197H777.356C776.232 386.327 771.877 382.695 766.667 382.695" fill="#2B2D70"/>
<path d="M683.717 380.031C681.047 380.031 678.516 380.611 676.224 381.633C674.877 376.608 670.304 372.903 664.853 372.903C663.816 372.903 662.816 373.049 661.857 373.303C659.532 363.489 650.739 356.181 640.215 356.181C630.013 356.181 621.433 363.053 618.8 372.416C618.516 372.404 618.237 372.372 617.952 372.372C607.54 372.372 598.951 380.076 597.509 390.089H700.129C697.075 384.124 690.88 380.031 683.717 380.031" fill="#2B2D70"/>
<path d="M691.979 314.873C688.591 318.263 673.305 329.083 670.551 326.327C667.797 323.572 678.616 308.287 682.004 304.899C685.392 301.511 690.372 300.996 693.128 303.752C695.881 306.505 695.368 311.485 691.979 314.873" fill="#5548A6"/>
<path d="M652.951 333.952C656.34 330.563 671.625 319.744 674.379 322.499C677.133 325.255 666.315 340.539 662.927 343.927C659.539 347.315 654.559 347.829 651.803 345.075C649.049 342.32 649.563 337.34 652.951 333.952" fill="#5548A6"/>
<path d="M673.963 302.744C675.201 307.372 676.928 326.02 673.165 327.028C669.403 328.035 661.576 311.024 660.335 306.395C659.095 301.767 661.139 297.197 664.903 296.189C668.665 295.18 672.721 298.115 673.963 302.744" fill="#5548A6"/>
<path d="M670.968 346.083C669.728 341.453 668.001 322.807 671.764 321.799C675.527 320.791 683.355 337.803 684.596 342.431C685.836 347.059 683.792 351.629 680.028 352.637C676.265 353.645 672.209 350.711 670.968 346.083" fill="#5548A6"/>
<path d="M654.448 312.283C659.076 313.523 676.088 321.351 675.08 325.113C674.072 328.876 655.424 327.149 650.796 325.909C646.168 324.669 643.233 320.613 644.24 316.851C645.248 313.087 649.819 311.041 654.448 312.283Z" fill="#5548A6"/>
<path d="M690.483 336.543C685.855 335.304 668.843 327.476 669.851 323.712C670.859 319.949 689.505 321.676 694.133 322.917C698.763 324.156 701.697 328.212 700.689 331.976C699.681 335.739 695.112 337.784 690.483 336.543Z" fill="#5548A6"/>
<path d="M676.765 328.712C674.391 331.088 670.54 331.088 668.165 328.712C665.791 326.337 665.791 322.487 668.165 320.113C670.54 317.739 674.391 317.739 676.765 320.113C679.14 322.487 679.14 326.337 676.765 328.712Z" fill="#FFFAEF"/>
<path d="M724.513 358.583C721.428 359.387 709.013 360.455 708.357 357.947C707.704 355.437 719.057 350.304 722.143 349.497C725.228 348.693 728.26 350.075 728.915 352.583C729.569 355.091 727.599 357.776 724.513 358.583" fill="#5548A6"/>
<path d="M695.688 356.401C698.775 355.596 711.189 354.529 711.844 357.036C712.499 359.544 701.144 364.68 698.06 365.484C694.973 366.289 691.943 364.909 691.288 362.401C690.633 359.892 692.604 357.205 695.688 356.401Z" fill="#5548A6"/>
<path d="M718.251 345.555C717.407 348.631 712.124 359.916 709.624 359.228C707.124 358.54 708.355 346.141 709.2 343.067C710.045 339.992 712.756 338.056 715.256 338.744C717.756 339.431 719.096 342.48 718.251 345.555" fill="#5548A6"/>
<path d="M701.952 369.427C702.797 366.353 708.079 355.068 710.579 355.756C713.077 356.441 711.848 368.843 711.003 371.917C710.157 374.991 707.445 376.925 704.947 376.239C702.447 375.552 701.105 372.501 701.952 369.427" fill="#5548A6"/>
<path d="M703.84 344.465C706.079 346.735 713.212 356.952 711.367 358.773C709.521 360.593 699.399 353.329 697.157 351.06C694.917 348.791 694.597 345.475 696.443 343.653C698.288 341.832 701.599 342.196 703.84 344.465Z" fill="#5548A6"/>
<path d="M716.363 370.517C714.124 368.249 706.991 358.031 708.836 356.209C710.681 354.388 720.804 361.653 723.044 363.924C725.285 366.193 725.604 369.509 723.759 371.329C721.913 373.151 718.603 372.787 716.363 370.517Z" fill="#5548A6"/>
<path d="M711.124 361.407C708.961 361.972 706.749 360.676 706.187 358.513C705.623 356.351 706.917 354.141 709.079 353.576C711.243 353.012 713.452 354.308 714.017 356.471C714.58 358.632 713.285 360.843 711.124 361.407Z" fill="#FFFAEF"/>
<path d="M728.096 323.609C725.753 323.187 717.007 320.013 717.351 318.108C717.693 316.203 726.999 316.288 729.341 316.711C731.685 317.135 733.305 319.021 732.963 320.925C732.619 322.831 730.44 324.033 728.096 323.609Z" fill="#5548A6"/>
<path d="M709.249 313.085C711.593 313.508 720.341 316.681 719.997 318.587C719.653 320.491 710.349 320.407 708.005 319.983C705.663 319.561 704.041 317.673 704.385 315.768C704.729 313.864 706.908 312.661 709.249 313.085" fill="#5548A6"/>
<path d="M727.943 312.817C726.405 314.636 719.283 320.624 717.804 319.373C716.327 318.124 721.052 310.108 722.589 308.291C724.129 306.473 726.573 306.012 728.051 307.261C729.528 308.513 729.48 311 727.943 312.817" fill="#5548A6"/>
<path d="M709.405 323.876C710.943 322.059 718.064 316.071 719.541 317.32C721.021 318.571 716.295 326.587 714.756 328.404C713.219 330.221 710.775 330.683 709.297 329.432C707.819 328.181 707.867 325.695 709.405 323.876" fill="#5548A6"/>
<path d="M718.52 307.556C719.324 309.796 720.951 318.959 719.129 319.613C717.307 320.267 712.728 312.167 711.921 309.927C711.117 307.687 711.941 305.339 713.763 304.684C715.584 304.029 717.713 305.315 718.52 307.556Z" fill="#5548A6"/>
<path d="M718.828 329.14C718.021 326.899 716.397 317.736 718.219 317.081C720.04 316.427 724.62 324.528 725.424 326.768C726.231 329.008 725.407 331.356 723.584 332.011C721.763 332.665 719.632 331.379 718.828 329.14Z" fill="#5548A6"/>
<path d="M718.136 321.32C716.495 321.025 715.404 319.453 715.7 317.811C715.996 316.168 717.568 315.077 719.209 315.373C720.853 315.669 721.944 317.241 721.647 318.884C721.351 320.527 719.779 321.617 718.136 321.32" fill="#FFFAEF"/>
<path d="M640.992 390.224H636.793L640.992 390.223V390.224Z" fill="#B4A3D8"/>
<path d="M640.992 390.223H636.793V390.089H640.992V390.224" fill="#786BBC"/>
<path d="M636.793 390.089H640.992V386.887H636.793V390.089Z" fill="#262861"/>
<path d="M722.076 286.341H656.273V282.144H720.523C720.913 283.601 721.436 285.005 722.076 286.341" fill="#786BBC"/>
<path d="M770.06 275.779C770.06 289.292 759.104 300.248 745.591 300.248C732.076 300.248 721.123 289.292 721.123 275.779C721.123 262.265 732.076 251.311 745.591 251.311C759.104 251.311 770.06 262.265 770.06 275.779Z" fill="#D88918"/>
<path d="M768.665 275.779C768.665 289.304 757.7 300.267 744.176 300.267C730.651 300.267 719.688 289.304 719.688 275.779C719.688 262.255 730.651 251.289 744.176 251.289C757.7 251.289 768.665 262.255 768.665 275.779Z" fill="#F6EA14"/>
<path d="M729.763 261.365C737.723 253.405 750.629 253.405 758.589 261.365C766.549 269.325 766.549 282.232 758.589 290.193C750.629 298.152 737.723 298.152 729.763 290.193C721.801 282.232 721.801 269.325 729.763 261.365Z" fill="#ED9B11"/>
<path d="M731.844 262.461C738.655 255.651 749.697 255.651 756.508 262.461C763.319 269.272 763.319 280.313 756.508 287.125C749.697 293.935 738.655 293.935 731.844 287.125C725.033 280.313 725.033 269.272 731.844 262.461Z" fill="#F1A814"/>
<path d="M739.62 283.812H736.786L732.047 276.637V283.812H729.213V272.179H732.047L736.786 279.387V272.179H739.62V283.812ZM749.247 272.179V274.449H744.508V276.902H748.054V279.106H744.508V283.812H741.674V272.179H749.247ZM759.106 272.179V274.449H756.023V283.812H753.189V274.449H750.107V272.179H759.106Z" fill="#F8EE21"/>
<path d="M129.183 256.86H130.168V154.109H129.183V256.86Z" fill="#FFFAEF"/>
<path d="M13.35 350.063H145.495V217.917H13.35V350.063Z" fill="#FFFAEF"/>
<path d="M25.3833 338.031H133.463V229.95H25.3833V338.031Z" fill="#B5A8DB"/>
<path d="M63.6787 254.027H57.6781V248.027H63.6787V254.027Z" fill="#2B2D70"/>
<path d="M69.6787 254.027H63.6787V248.027H69.6787V254.027Z" fill="#2B2D70"/>
<path d="M75.6787 254.027H69.6787V248.027H75.6787V254.027Z" fill="#2B2D70"/>
<path d="M81.6797 254.027H75.6787V248.027H81.6797V254.027" fill="#2B2D70"/>
<path d="M87.68 254.027H81.6797V248.027H87.68V254.027Z" fill="#2B2D70"/>
<path d="M93.68 254.027H87.68V248.027H93.68V254.027Z" fill="#2B2D70"/>
<path d="M99.68 254.027H93.68V248.027H99.68V254.027Z" fill="#2B2D70"/>
<path d="M57.6781 260.027H51.6781V254.027H57.6781V260.027Z" fill="#2B2D70"/>
<path d="M63.6787 260.027H57.6781V254.027H63.6787V260.027Z" fill="#5548A6"/>
<path d="M69.6787 260.027H63.6787V254.027H69.6787V260.027Z" fill="#5548A6"/>
<path d="M75.6787 260.027H69.6787V254.027H75.6787V260.027Z" fill="#5548A6"/>
<path d="M81.6797 260.027H75.6787V254.027H81.6797V260.027" fill="#5548A6"/>
<path d="M87.68 260.027H81.6797V254.027H87.68V260.027Z" fill="#5548A6"/>
<path d="M93.68 260.027H87.68V254.027H93.68V260.027Z" fill="#5548A6"/>
<path d="M99.68 260.027H93.68V254.027H99.68V260.027Z" fill="#5548A6"/>
<path d="M105.68 260.027H99.68V254.027H105.68V260.027Z" fill="#2B2D70"/>
<path d="M57.6781 266.028H51.6781V260.027H57.6781V266.028Z" fill="#2B2D70"/>
<path d="M63.6787 266.028H57.6781V260.027H63.6787V266.028Z" fill="#5548A6"/>
<path d="M69.6787 266.028H63.6787V260.027H69.6787V266.028Z" fill="#5548A6"/>
<path d="M75.6787 266.028H69.6787V260.027H75.6787V266.028Z" fill="#5548A6"/>
<path d="M81.6797 266.028H75.6787V260.027H81.6797V266.028" fill="#5548A6"/>
<path d="M87.68 266.028H81.6797V260.027H87.68V266.028Z" fill="#5548A6"/>
<path d="M93.68 266.028H87.68V260.027H93.68V266.028Z" fill="#5548A6"/>
<path d="M99.68 266.028H93.68V260.027H99.68V266.028Z" fill="#5548A6"/>
<path d="M105.68 266.028H99.68V260.027H105.68V266.028Z" fill="#2B2D70"/>
<path d="M51.6781 272.028H45.6781V266.028H51.6781V272.028Z" fill="#2B2D70"/>
<path d="M57.6781 272.028H51.6781V266.028H57.6781V272.028Z" fill="#5548A6"/>
<path d="M63.6787 272.028H57.6781V266.028H63.6787V272.028Z" fill="#5548A6"/>
<path d="M69.6787 272.028H63.6787V266.028H69.6787V272.028Z" fill="#2B2D70"/>
<path d="M75.6787 272.028H69.6787V266.028H75.6787V272.028Z" fill="#2B2D70"/>
<path d="M81.6797 272.028H75.6787V266.028H81.6797V272.028" fill="#5548A6"/>
<path d="M87.68 272.028H81.6797V266.028H87.68V272.028Z" fill="#5548A6"/>
<path d="M93.68 272.028H87.68V266.028H93.68V272.028Z" fill="#2B2D70"/>
<path d="M99.68 272.028H93.68V266.028H99.68V272.028Z" fill="#2B2D70"/>
<path d="M105.68 272.028H99.68V266.028H105.68V272.028Z" fill="#5548A6"/>
<path d="M111.68 272.028H105.68V266.028H111.68V272.028Z" fill="#2B2D70"/>
<path d="M51.6781 278.028H45.6781V272.028H51.6781V278.028Z" fill="#2B2D70"/>
<path d="M57.6781 278.028H51.6781V272.028H57.6781V278.028Z" fill="#5548A6"/>
<path d="M63.6787 278.028H57.6781V272.028H63.6787V278.028Z" fill="#5548A6"/>
<path d="M69.6787 278.028H63.6787V272.028H69.6787V278.028Z" fill="#5548A6"/>
<path d="M75.6787 278.028H69.6787V272.028H75.6787V278.028Z" fill="#5548A6"/>
<path d="M81.6797 278.028H75.6787V272.028H81.6797V278.028" fill="#5548A6"/>
<path d="M87.68 278.028H81.6797V272.028H87.68V278.028Z" fill="#5548A6"/>
<path d="M93.68 278.028H87.68V272.028H93.68V278.028Z" fill="#5548A6"/>
<path d="M99.68 278.028H93.68V272.028H99.68V278.028Z" fill="#5548A6"/>
<path d="M105.68 278.028H99.68V272.028H105.68V278.028Z" fill="#5548A6"/>
<path d="M111.68 278.028H105.68V272.028H111.68V278.028Z" fill="#5548A6"/>
<path d="M117.68 278.028H111.68V272.028H117.68V278.028Z" fill="#2B2D70"/>
<path d="M51.6781 284.028H45.6781V278.028H51.6781V284.028Z" fill="#2B2D70"/>
<path d="M57.6781 284.028H51.6781V278.028H57.6781V284.028Z" fill="#5548A6"/>
<path d="M63.6787 284.028H57.6781V278.028H63.6787V284.028Z" fill="#5548A6"/>
<path d="M69.6787 284.028H63.6787V278.028H69.6787V284.028Z" fill="#FFFAEF"/>
<path d="M75.6787 284.028H69.6787V278.028H75.6787V284.028Z" fill="#2B2D70"/>
<path d="M81.6797 284.028H75.6787V278.028H81.6797V284.028" fill="#5548A6"/>
<path d="M87.68 284.028H81.6797V278.028H87.68V284.028Z" fill="#5548A6"/>
<path d="M93.68 284.028H87.68V278.028H93.68V284.028Z" fill="#FFFAEF"/>
<path d="M99.68 284.028H93.68V278.028H99.68V284.028Z" fill="#5548A6"/>
<path d="M105.68 284.028H99.68V278.028H105.68V284.028Z" fill="#5548A6"/>
<path d="M111.68 284.028H105.68V278.028H111.68V284.028Z" fill="#5548A6"/>
<path d="M117.68 284.028H111.68V278.028H117.68V284.028Z" fill="#2B2D70"/>
<path d="M51.6781 290.028H45.6781V284.028H51.6781V290.028Z" fill="#2B2D70"/>
<path d="M57.6781 290.028H51.6781V284.028H57.6781V290.028Z" fill="#5548A6"/>
<path d="M63.6787 290.028H57.6781V284.028H63.6787V290.028Z" fill="#5548A6"/>
<path d="M69.6787 290.028H63.6787V284.028H69.6787V290.028Z" fill="#5548A6"/>
<path d="M75.6787 290.028H69.6787V284.028H75.6787V290.028Z" fill="#2B2D70"/>
<path d="M81.6797 290.028H75.6787V284.028H81.6797V290.028" fill="#5548A6"/>
<path d="M87.68 290.028H81.6797V284.028H87.68V290.028Z" fill="#5548A6"/>
<path d="M93.68 290.028H87.68V284.028H93.68V290.028Z" fill="#5548A6"/>
<path d="M99.68 290.028H93.68V284.028H99.68V290.028Z" fill="#5548A6"/>
<path d="M105.68 290.028H99.68V284.028H105.68V290.028Z" fill="#5548A6"/>
<path d="M111.68 290.028H105.68V284.028H111.68V290.028Z" fill="#5548A6"/>
<path d="M117.68 290.028H111.68V284.028H117.68V290.028Z" fill="#2B2D70"/>
<path d="M51.6781 296.029H45.6781V290.028H51.6781V296.029Z" fill="#2B2D70"/>
<path d="M57.6781 296.029H51.6781V290.028H57.6781V296.029Z" fill="#5548A6"/>
<path d="M63.6787 296.029H57.6781V290.028H63.6787V296.029Z" fill="#5548A6"/>
<path d="M69.6787 296.029H63.6787V290.028H69.6787V296.029Z" fill="#5548A6"/>
<path d="M75.6787 296.029H69.6787V290.028H75.6787V296.029Z" fill="#2B2D70"/>
<path d="M81.6797 296.029H75.6787V290.028H81.6797V296.029" fill="#5548A6"/>
<path d="M87.68 296.029H81.6797V290.028H87.68V296.029Z" fill="#5548A6"/>
<path d="M93.68 296.029H87.68V290.028H93.68V296.029Z" fill="#5548A6"/>
<path d="M99.68 296.029H93.68V290.028H99.68V296.029Z" fill="#5548A6"/>
<path d="M105.68 296.029H99.68V290.028H105.68V296.029Z" fill="#5548A6"/>
<path d="M111.68 296.029H105.68V290.028H111.68V296.029Z" fill="#2B2D70"/>
<path d="M117.68 296.029H111.68V290.028H117.68V296.029Z" fill="#2B2D70"/>
<path d="M51.6781 302.029H45.6781V296.029H51.6781V302.029Z" fill="#2B2D70"/>
<path d="M57.6781 302.029H51.6781V296.029H57.6781V302.029Z" fill="#5548A6"/>
<path d="M63.6787 302.029H57.6781V296.029H63.6787V302.029Z" fill="#5548A6"/>
<path d="M69.6787 302.029H63.6787V296.029H69.6787V302.029Z" fill="#5548A6"/>
<path d="M75.6787 302.029H69.6787V296.029H75.6787V302.029Z" fill="#5548A6"/>
<path d="M81.6797 302.029H75.6787V296.029H81.6797V302.029" fill="#5548A6"/>
<path d="M87.68 302.029H81.6797V296.029H87.68V302.029Z" fill="#5548A6"/>
<path d="M93.68 302.029H87.68V296.029H93.68V302.029Z" fill="#5548A6"/>
<path d="M99.68 302.029H93.68V296.029H99.68V302.029Z" fill="#5548A6"/>
<path d="M105.68 302.029H99.68V296.029H105.68V302.029Z" fill="#5548A6"/>
<path d="M111.68 302.029H105.68V296.029H111.68V302.029Z" fill="#5548A6"/>
<path d="M117.68 302.029H111.68V296.029H117.68V302.029Z" fill="#2B2D70"/>
<path d="M51.6781 308.029H45.6781V302.029H51.6781V308.029" fill="#2B2D70"/>
<path d="M57.6781 308.029H51.6781V302.029H57.6781V308.029" fill="#5548A6"/>
<path d="M63.6787 308.029H57.6781V302.029H63.6787V308.029" fill="#5548A6"/>
<path d="M69.6787 308.029H63.6787V302.029H69.6787V308.029" fill="#5548A6"/>
<path d="M75.6787 308.029H69.6787V302.029H75.6787V308.029" fill="#FFFAEF"/>
<path d="M81.6797 308.029H75.6787V302.029H81.6797V308.029" fill="#FFFAEF"/>
<path d="M87.68 308.029H81.6797V302.029H87.68V308.029" fill="#FFFAEF"/>
<path d="M93.68 308.029H87.68V302.029H93.68V308.029" fill="#FFFAEF"/>
<path d="M99.68 308.029H93.68V302.029H99.68V308.029" fill="#5548A6"/>
<path d="M105.68 308.029H99.68V302.029H105.68V308.029" fill="#5548A6"/>
<path d="M111.68 308.029H105.68V302.029H111.68V308.029" fill="#5548A6"/>
<path d="M117.68 308.029H111.68V302.029H117.68V308.029" fill="#2B2D70"/>
<path d="M51.6781 314.029H45.6781V308.029H51.6781V314.029Z" fill="#2B2D70"/>
<path d="M57.6781 314.029H51.6781V308.029H57.6781V314.029Z" fill="#5548A6"/>
<path d="M63.6787 314.029H57.6781V308.029H63.6787V314.029Z" fill="#5548A6"/>
<path d="M69.6787 314.029H63.6787V308.029H69.6787V314.029Z" fill="#5548A6"/>
<path d="M75.6787 314.029H69.6787V308.029H75.6787V314.029Z" fill="#5548A6"/>
<path d="M81.6797 314.029H75.6787V308.029H81.6797V314.029" fill="#5548A6"/>
<path d="M87.68 314.029H81.6797V308.029H87.68V314.029Z" fill="#5548A6"/>
<path d="M93.68 314.029H87.68V308.029H93.68V314.029Z" fill="#5548A6"/>
<path d="M99.68 314.029H93.68V308.029H99.68V314.029Z" fill="#5548A6"/>
<path d="M105.68 314.029H99.68V308.029H105.68V314.029Z" fill="#5548A6"/>
<path d="M111.68 314.029H105.68V308.029H111.68V314.029Z" fill="#5548A6"/>
<path d="M117.68 314.029H111.68V308.029H117.68V314.029Z" fill="#2B2D70"/>
<path d="M51.6781 320.029H45.6781V314.029H51.6781V320.029Z" fill="#2B2D70"/>
<path d="M57.6781 320.029H51.6781V314.029H57.6781V320.029Z" fill="#5548A6"/>
<path d="M63.6787 320.029H57.6781V314.029H63.6787V320.029Z" fill="#5548A6"/>
<path d="M69.6787 320.029H63.6787V314.029H69.6787V320.029Z" fill="#5548A6"/>
<path d="M75.6787 320.029H69.6787V314.029H75.6787V320.029Z" fill="#5548A6"/>
<path d="M81.6797 320.029H75.6787V314.029H81.6797V320.029" fill="#5548A6"/>
<path d="M87.68 320.029H81.6797V314.029H87.68V320.029Z" fill="#5548A6"/>
<path d="M93.68 320.029H87.68V314.029H93.68V320.029Z" fill="#5548A6"/>
<path d="M99.68 320.029H93.68V314.029H99.68V320.029Z" fill="#5548A6"/>
<path d="M105.68 320.029H99.68V314.029H105.68V320.029Z" fill="#5548A6"/>
<path d="M111.68 320.029H105.68V314.029H111.68V320.029Z" fill="#5548A6"/>
<path d="M117.68 320.029H111.68V314.029H117.68V320.029Z" fill="#2B2D70"/>
<path d="M57.6781 326.029H51.6781V320.029H57.6781V326.029Z" fill="#2B2D70"/>
<path d="M63.6787 326.029H57.6781V320.029H63.6787V326.029Z" fill="#2B2D70"/>
<path d="M69.6787 326.029H63.6787V320.029H69.6787V326.029Z" fill="#5548A6"/>
<path d="M69.6787 332.031H63.6787V326.029H69.6787V332.031Z" fill="#2B2D70"/>
<path d="M75.6787 332.031H69.6787V326.029H75.6787V332.031Z" fill="#2B2D70"/>
<path d="M81.6797 332.031H75.6787V326.029H81.6797V332.031" fill="#5548A6"/>
<path d="M87.68 332.031H81.6797V326.029H87.68V332.031Z" fill="#5548A6"/>
<path d="M93.68 332.031H87.68V326.029H93.68V332.031Z" fill="#5548A6"/>
<path d="M99.68 332.031H93.68V326.029H99.68V332.031Z" fill="#5548A6"/>
<path d="M105.68 332.031H99.68V326.029H105.68V332.031Z" fill="#5548A6"/>
<path d="M111.68 332.031H105.68V326.029H111.68V332.031Z" fill="#2B2D70"/>
<path d="M75.6787 338.031H69.6787V332.031H75.6787V338.031Z" fill="#2B2D70"/>
<path d="M81.6797 338.031H75.6787V332.031H81.6797V338.031" fill="#5548A6"/>
<path d="M87.68 338.031H81.6797V332.031H87.68V338.031Z" fill="#5548A6"/>
<path d="M93.68 338.031H87.68V332.031H93.68V338.031Z" fill="#5548A6"/>
<path d="M99.68 338.031H93.68V332.031H99.68V338.031Z" fill="#5548A6"/>
<path d="M105.68 338.031H99.68V332.031H105.68V338.031Z" fill="#5548A6"/>
<path d="M111.68 338.031H105.68V332.031H111.68V338.031Z" fill="#2B2D70"/>
<path d="M75.6787 326.029H69.6787V320.029H75.6787V326.029Z" fill="#5548A6"/>
<path d="M81.6797 326.029H75.6787V320.029H81.6797V326.029" fill="#5548A6"/>
<path d="M87.68 326.029H81.6797V320.029H87.68V326.029Z" fill="#5548A6"/>
<path d="M93.68 326.029H87.68V320.029H93.68V326.029Z" fill="#5548A6"/>
<path d="M99.68 326.029H93.68V320.029H99.68V326.029Z" fill="#5548A6"/>
<path d="M105.68 326.029H99.68V320.029H105.68V326.029Z" fill="#5548A6"/>
<path d="M111.68 326.029H105.68V320.029H111.68V326.029Z" fill="#2B2D70"/>
<path d="M117.68 326.029H111.68V320.029H117.68V326.029Z" fill="#2B2D70"/>
<path d="M29.5803 338.031H25.3833V229.951H133.463V234.148H29.5803V338.031Z" fill="#786BBC"/>
<path d="M50.5693 223.585C50.5693 237.099 39.6145 248.053 26.1005 248.053C12.5869 248.053 1.63174 237.099 1.63174 223.585C1.63174 210.071 12.5869 199.116 26.1005 199.116C39.6145 199.116 50.5693 210.071 50.5693 223.585" fill="#D88918"/>
<path d="M49.1751 223.585C49.1751 237.111 38.2109 248.073 24.686 248.073C11.1615 248.073 0.19693 237.111 0.19693 223.585C0.19693 210.06 11.1615 199.096 24.686 199.096C38.2109 199.096 49.1751 210.06 49.1751 223.585Z" fill="#F6EA14"/>
<path d="M10.2724 209.172C18.2328 201.211 31.1391 201.211 39.0995 209.172C47.0599 217.132 47.0599 230.037 39.0995 237.999C31.1391 245.959 18.2328 245.959 10.2724 237.999C2.31252 230.037 2.31252 217.132 10.2724 209.172Z" fill="#ED9B11"/>
<path d="M12.3541 210.267C19.1651 203.456 30.2073 203.456 37.0183 210.267C43.8287 217.079 43.8287 228.12 37.0183 234.931C30.2073 241.741 19.1651 241.741 12.3541 234.931C5.54321 228.12 5.54321 217.079 12.3541 210.267" fill="#F1A814"/>
<path d="M20.1305 231.616H17.2967L12.5571 224.441V231.616H9.72332V219.983H12.5571L17.2967 227.191V219.983H20.1305V231.616ZM29.7579 219.983V222.253H25.0184V224.706H28.5648V226.91H25.0184V231.616H22.1846V219.983H29.7579ZM39.6161 219.983V222.253H36.5337V231.616H33.7V222.253H30.6176V219.983H39.6161Z" fill="#F8EE21"/>
<path d="M129.676 139.611L117.044 146.861L129.676 154.109L142.308 146.861L129.676 139.611Z" fill="#B5A8DB"/>
<path d="M142.308 146.861L129.676 154.109V169.581L142.308 162.332V146.861Z" fill="#2B2D70"/>
<path d="M117.044 146.861L129.676 154.109V169.581L117.044 162.332V146.861Z" fill="#FFFAEF"/>
<path d="M590.077 359.055L577.447 366.307L590.077 373.555L602.709 366.307L590.077 359.055Z" fill="#B5A8DB"/>
<path d="M602.709 366.307L590.077 373.555V389.025L602.709 381.776V366.307Z" fill="#2B2D70"/>
<path d="M577.447 366.307L590.077 373.555V389.025L577.447 381.776V366.307Z" fill="#FFFAEF"/>
<path d="M844.563 99.9827L831.931 107.232L844.563 114.481L857.193 107.232L844.563 99.9827Z" fill="#B5A8DB"/>
<path d="M857.193 107.232L844.563 114.481V129.953L857.193 122.704V107.232Z" fill="#2B2D70"/>
<path d="M831.931 107.232L844.563 114.481V129.953L831.931 122.704V107.232Z" fill="#FFFAEF"/>
<path d="M806.843 298.552L794.211 305.803L806.843 313.051L819.473 305.803L806.843 298.552Z" fill="#B5A8DB"/>
<path d="M819.473 305.803L806.843 313.051V328.523L819.473 321.273V305.803Z" fill="#2B2D70"/>
<path d="M794.211 305.803L806.843 313.051V328.523L794.211 321.273V305.803Z" fill="#FFFAEF"/>
<path d="M432.44 389.921H458.079V296.828H432.44V389.921Z" fill="#2B2D70"/>
<path d="M488.159 374.884H402.36L388.193 396.755H502.325L488.159 374.884" fill="#2B2D70"/>
<path d="M388.193 407.691H502.326V396.755H388.193V407.691Z" fill="#2B2D70"/>
<path d="M432.44 349.375H458.079V338.777H432.44V349.375Z" fill="#25275D"/>
<path d="M594.96 118.364H295.56C293.381 118.364 291.615 120.131 291.615 122.309V334.833C291.615 337.012 293.381 338.777 295.56 338.777H594.96C597.137 338.777 598.905 337.012 598.905 334.833V122.309C598.905 120.131 597.137 118.364 594.96 118.364" fill="#2B2D70"/>
<path d="M300.059 309.796H590.459V127.345H300.059V309.796Z" fill="#5548A6"/>
<path d="M590.46 142.285H300.059V127.508H590.46V142.285" fill="#B5A8DB"/>
<path d="M543.268 192.311H347.249C341.44 192.311 336.731 197.02 336.731 202.831V252.203C336.731 258.013 341.44 262.723 347.249 262.723H543.268C549.079 262.723 553.789 258.013 553.789 252.203V202.831C553.789 197.02 549.079 192.311 543.268 192.311Z" fill="#FFFAEF"/>
<path d="M505.081 222.928C505.081 225.967 506.264 228.825 508.413 230.975C510.564 233.124 513.42 234.308 516.461 234.308C519.5 234.308 522.357 233.124 524.507 230.975C526.656 228.825 527.84 225.967 527.84 222.928C527.84 219.889 526.656 217.031 524.507 214.881C522.357 212.732 519.5 211.548 516.461 211.548C513.42 211.548 510.564 212.732 508.413 214.881C506.264 217.031 505.081 219.889 505.081 222.928ZM533.849 222.928C533.849 227.572 532.04 231.94 528.755 235.224C525.472 238.508 521.105 240.316 516.461 240.316C511.815 240.316 507.449 238.508 504.165 235.224C500.88 231.94 499.072 227.572 499.072 222.928C499.072 218.284 500.88 213.916 504.165 210.632C507.449 207.348 511.815 205.539 516.461 205.539C521.105 205.539 525.471 207.348 528.755 210.632C532.04 213.916 533.849 218.284 533.849 222.928Z" fill="#2B2D70"/>
<path d="M542.185 248.653C541.067 249.775 539.249 249.775 538.128 248.653L531.941 242.465C530.82 241.345 530.82 239.529 531.94 238.408C533.061 237.288 534.877 237.288 535.999 238.408L542.185 244.596C543.305 245.717 543.307 247.533 542.185 248.653" fill="#2B2D70"/>
<path d="M537.517 241.331L534.861 243.985L525.303 234.427L527.96 231.771L537.517 241.331" fill="#2B2D70"/>
<path d="M388.604 248.897H379.355L363.886 225.478V248.897H354.637V210.928H363.886L379.355 234.456V210.928H388.604V248.897ZM422.622 210.928V218.338H412.562V248.897H403.313V218.338H393.253V210.928H422.622ZM451.981 210.928V218.338H436.513V226.343H448.087V233.537H436.513V248.897H427.264V210.928H451.981Z" fill="#2B2D70"/>
<path d="M501.484 407.691H387.352V396.755H388.193V407.691H501.484Z" fill="#C5BFBB"/>
<path d="M388.193 407.691H501.484V396.755H388.193V407.691Z" fill="#25275D"/>
<path d="M799.843 257.403H894.392V162.853H799.843V257.403Z" fill="#FFFAEF"/>
<path d="M808.452 248.793H885.783V171.463H808.452V248.793Z" fill="#B5A8DB"/>
<path d="M840.401 186.651C840.401 191.179 836.731 194.851 832.201 194.851C827.675 194.851 824.003 191.179 824.003 186.651C824.003 182.123 827.675 178.452 832.201 178.452C836.731 178.452 840.401 182.123 840.401 186.651Z" fill="#2B2D70"/>
<path d="M885.783 211.921C882.881 211.839 879.969 212.087 877.143 212.699C869.129 214.433 862.173 218.693 854.759 221.891C840.509 228.035 824.135 230.244 808.452 228.191V248.793H885.783V211.921" fill="#5548A6"/>
<path d="M885.783 223.787C883.351 223.884 880.935 224.181 878.587 224.713C873.075 225.964 867.836 228.473 862.111 228.313C856.383 228.153 851.345 225.339 846.965 222.387C842.587 219.435 838.3 216.147 832.868 214.688C824.62 212.476 815.483 215.031 808.452 219.223V248.793H885.783V223.787" fill="#2B2D70"/>
<path d="M882.003 186.399L881.992 186.4C881.881 181.091 877.552 176.819 872.217 176.819C868.009 176.819 864.432 179.48 863.051 183.207C862.223 182.847 861.309 182.644 860.348 182.644C856.605 182.644 853.572 185.677 853.572 189.42L853.576 189.508C853.287 189.451 852.987 189.42 852.681 189.42C850.676 189.42 848.973 190.699 848.335 192.483H889.651C888.845 188.999 885.731 186.399 882.003 186.399" fill="#FFFAEF"/>
<path d="M828.412 203.883C827.303 203.883 826.252 204.123 825.3 204.547C824.743 202.46 822.844 200.921 820.58 200.921C820.149 200.921 819.735 200.983 819.336 201.088C818.371 197.015 814.72 193.98 810.351 193.98C806.115 193.98 802.552 196.833 801.46 200.72L801.108 200.701C796.785 200.701 793.217 203.9 792.62 208.057H835.227C833.959 205.581 831.385 203.883 828.412 203.883" fill="#FFFAEF"/>
<path d="M829.073 174.467H885.783V171.463H829.073V174.467Z" fill="#786BBC"/>
<path d="M903.803 166.908C903.803 176.577 895.965 184.416 886.296 184.416C876.627 184.416 868.788 176.577 868.788 166.908C868.788 157.239 876.627 149.401 886.296 149.401C895.965 149.401 903.803 157.239 903.803 166.908Z" fill="#D88918"/>
<path d="M902.804 166.908C902.804 176.585 894.961 184.431 885.284 184.431C875.607 184.431 867.761 176.585 867.761 166.908C867.761 157.231 875.607 149.387 885.284 149.387C894.961 149.387 902.804 157.231 902.804 166.908Z" fill="#F6EA14"/>
<path d="M874.969 156.596C880.667 150.9 889.901 150.9 895.596 156.596C901.292 162.291 901.292 171.525 895.596 177.221C889.901 182.917 880.667 182.917 874.969 177.221C869.275 171.525 869.275 162.291 874.969 156.596Z" fill="#ED9B11"/>
<path d="M876.46 157.38C881.333 152.507 889.235 152.507 894.107 157.38C898.98 162.253 898.98 170.153 894.107 175.027C889.235 179.9 881.333 179.9 876.46 175.027C871.587 170.153 871.587 162.253 876.46 157.38Z" fill="#F1A814"/>
<path d="M882.023 172.775H879.995L876.604 167.641V172.775H874.576V164.451H876.604L879.995 169.609V164.451H882.023V172.775ZM888.911 164.451V166.076H885.52V167.83H888.058V169.407H885.52V172.775H883.492V164.451H888.911ZM895.965 164.451V166.076H893.759V172.775H891.732V166.076H889.526V164.451H895.965Z" fill="#F8EE21"/>
<path d="M150.645 439.105L78.6151 392.221L79.1527 391.396L151.184 438.28L150.645 439.105" fill="#FFFAEF"/>
<path d="M78.8839 377.309L66.2527 384.56L78.8839 391.809L91.516 384.56L78.8839 377.309" fill="#B5A8DB"/>
<path d="M91.516 384.56L78.8839 391.809V407.28L91.516 400.031V384.56Z" fill="#2B2D70"/>
<path d="M66.2527 384.56L78.8839 391.809V407.28L66.2527 400.031V384.56Z" fill="#FFFAEF"/>
<path d="M150.915 423.707L138.283 430.957L150.915 438.205L163.547 430.957L150.915 423.707Z" fill="#B5A8DB"/>
<path d="M163.547 430.957L150.915 438.205V453.677L163.547 446.428V430.957Z" fill="#2B2D70"/>
<path d="M138.283 430.957L150.915 438.205V453.677L138.283 446.428V430.957Z" fill="#FFFAEF"/>
<path d="M197.819 382.387H303.436V276.768H197.819V382.387Z" fill="#FFFAEF"/>
<path d="M207.436 372.769H293.82V286.387H207.436V372.769Z" fill="#B5A8DB"/>
<path d="M293.82 289.741V286.387H207.436V286.385H293.82V289.741Z" fill="#B4A3D8"/>
<path d="M210.791 372.769H207.436V286.385L293.82 286.387V289.741H210.791V372.769Z" fill="#786BBC"/>
<path d="M238.688 351.473V307.683L271.576 329.579L238.688 351.473Z" fill="#2B2D70"/>
<path d="M313.949 382.387C313.949 393.188 305.193 401.944 294.393 401.944C283.592 401.944 274.836 393.188 274.836 382.387C274.836 371.587 283.592 362.829 294.393 362.829C305.193 362.829 313.949 371.587 313.949 382.387Z" fill="#D88918"/>
<path d="M312.835 382.387C312.835 393.197 304.072 401.96 293.263 401.96C282.452 401.96 273.688 393.197 273.688 382.387C273.688 371.577 282.452 362.813 293.263 362.813C304.072 362.813 312.835 371.577 312.835 382.387Z" fill="#F6EA14"/>
<path d="M281.741 370.867C288.104 364.504 298.42 364.504 304.783 370.867C311.144 377.229 311.144 387.544 304.783 393.907C298.42 400.269 288.104 400.269 281.741 393.907C275.38 387.544 275.38 377.229 281.741 370.867Z" fill="#ED9B11"/>
<path d="M283.405 371.743C288.849 366.299 297.675 366.299 303.119 371.743C308.561 377.187 308.561 386.012 303.119 391.455C297.675 396.899 288.849 396.899 283.405 391.455C277.963 386.012 277.963 377.187 283.405 371.743Z" fill="#F1A814"/>
<path d="M289.621 389.419H287.356L283.567 383.684V389.419H281.303V380.121H283.567L287.356 385.882V380.121H289.621V389.419ZM297.315 380.121V381.935H293.527V383.896H296.362V385.657H293.527V389.419H291.262V380.121H297.315ZM305.195 380.121V381.935H302.731V389.419H300.466V381.935H298.002V380.121H305.195Z" fill="#F8EE21"/>
<path d="M292.02 18.2391H288.229V22.1169H284.7V18.2391H280.909V14.9059H284.7V11.0063H288.229V14.9059H292.02V18.2391Z" fill="#ED9B11"/>
<path d="M729.749 89.9149H725.435V94.3287H721.418V89.9149H717.103V86.121H721.418V81.6824H725.435V86.121H729.749V89.9149ZM745.32 89.9149H741.005V94.3287H736.988V89.9149H732.673V86.121H736.988V81.6824H741.005V86.121H745.32V89.9149Z" fill="#ED9B11"/>
<path d="M66.2527 64.8307V119.135L47.0579 103.171L66.2527 64.8307Z" fill="#2B2D70"/>
<path d="M66.2527 64.8307V119.135L85.4466 103.171L66.2527 64.8307Z" fill="#2B2D70"/>
<path d="M66.2527 138.452V123.305L47.0579 107.341L66.2527 138.452Z" fill="#2B2D70"/>
<path d="M66.2527 138.452V123.305L85.4466 107.341L66.2527 138.452Z" fill="#2B2D70"/>
<path d="M66.2527 119.135V64.8307L85.4466 103.171L66.2527 119.135Z" fill="#262861"/>
<path d="M66.2527 138.452V123.305L85.4466 107.341L77.7912 119.751L77.2729 120.589L66.2527 138.452Z" fill="#262861"/>
<path d="M590.077 415.689V469.993L570.884 454.031L590.077 415.689Z" fill="#2B2D70"/>
<path d="M590.077 415.689V469.993L609.273 454.031L590.077 415.689Z" fill="#2B2D70"/>
<path d="M590.077 489.31V474.164L570.884 458.2L590.077 489.31Z" fill="#2B2D70"/>
<path d="M590.077 489.31V474.164L609.273 458.2L590.077 489.31Z" fill="#2B2D70"/>
<path d="M590.077 469.993V415.689L609.273 454.031L608.051 455.047L590.077 469.993Z" fill="#262861"/>
<path d="M590.077 489.31V474.164L609.273 458.2L590.077 489.31Z" fill="#262861"/>
<path d="M502.325 12.4947V66.7987L483.131 50.8347L502.325 12.4947Z" fill="#2B2D70"/>
<path d="M502.325 12.4947V66.7987L521.52 50.8347L502.325 12.4947Z" fill="#2B2D70"/>
<path d="M502.325 86.116V70.9693L483.131 55.0054L502.325 86.116Z" fill="#2B2D70"/>
<path d="M502.325 86.116V70.9693L521.52 55.0054L502.325 86.116Z" fill="#2B2D70"/>
<path d="M502.325 66.7987V12.4947L521.52 50.8347L502.325 66.7987" fill="#262861"/>
<path d="M502.325 86.116V70.9693L521.52 55.0054L502.325 86.116Z" fill="#262861"/>
<path d="M844.288 114.961L717.293 42.0814L717.843 41.124L844.837 114.003L844.288 114.961" fill="#FFFAEF"/>
<path d="M710.043 21.9707L697.409 29.2214L710.043 36.4707L722.675 29.2214L710.043 21.9707Z" fill="#B5A8DB"/>
<path d="M722.675 29.2214L710.043 36.4707V51.9413L722.675 44.692V29.2214Z" fill="#2B2D70"/>
<path d="M697.409 29.2214L710.043 36.4707V51.9413L697.409 44.692V29.2214Z" fill="#FFFAEF"/>
<path d="M656.583 216.004H776.799V95.7879H656.583V216.004Z" fill="#FFFAEF"/>
<path d="M667.529 205.056H765.852V106.733H667.529V205.056Z" fill="#B5A8DB"/>
<path d="M765.852 171.656C760.005 170.373 753.972 170.548 748.359 172.729C742.572 174.976 736.915 179.276 730.843 177.98C725.276 176.791 721.799 171.343 717.009 168.268C711.651 164.831 704.72 164.54 698.58 166.224C692.44 167.907 686.949 171.369 681.767 175.067C676.797 178.611 671.944 182.557 667.529 186.896V205.057H765.852V171.656Z" fill="#5548A6"/>
<path d="M747.372 177.844C746.635 163.156 742.853 148.153 738.097 133.539C734.701 123.959 725.461 117.211 716.691 117.207C707.919 117.209 698.683 123.96 695.285 133.539C690.529 148.152 686.747 163.156 686.011 177.844C685.767 188.916 697.439 198.749 707.339 198.739C713.573 198.739 719.808 198.739 726.044 198.739C735.944 198.749 747.615 188.916 747.372 177.844" fill="#2B2D70"/>
<path d="M697.879 196.087C700.875 197.764 704.055 198.737 707.339 198.739C713.573 198.739 719.808 198.739 726.044 198.739C729.327 198.739 732.507 197.764 735.504 196.087C735.715 189.187 735.247 182.144 734.336 175.039C733.379 167.381 725.648 161.751 716.691 161.757C707.732 161.753 700.004 167.38 699.047 175.039C698.135 182.144 697.668 189.185 697.879 196.087" fill="#FFFAEF"/>
<path d="M716.045 136.569C716.045 140.331 712.996 143.38 709.235 143.38C705.472 143.38 702.423 140.331 702.423 136.569C702.423 132.808 705.472 129.759 709.235 129.759C712.996 129.759 716.045 132.808 716.045 136.569Z" fill="#FFFAEF"/>
<path d="M712.427 138.461C712.427 139.505 711.58 140.352 710.535 140.352C709.491 140.352 708.644 139.505 708.644 138.461C708.644 137.417 709.491 136.569 710.535 136.569C711.58 136.569 712.427 137.417 712.427 138.461Z" fill="#2B2D70"/>
<path d="M732.42 136.569C732.42 140.331 729.371 143.38 725.609 143.38C721.848 143.38 718.799 140.331 718.799 136.569C718.799 132.808 721.848 129.759 725.609 129.759C729.371 129.759 732.42 132.808 732.42 136.569Z" fill="#FFFAEF"/>
<path d="M724.959 138.461C724.959 139.505 724.111 140.352 723.067 140.352C722.021 140.352 721.175 139.505 721.175 138.461C721.175 137.417 722.021 136.569 723.067 136.569C724.111 136.569 724.959 137.417 724.959 138.461Z" fill="#2B2D70"/>
<path d="M702.355 147.249L684.653 144.447L684.789 143.589L702.491 146.393L702.355 147.249" fill="#FFFAEF"/>
<path d="M684.183 151.425L684.08 150.565L702.372 148.4L702.473 149.26L684.183 151.425" fill="#FFFAEF"/>
<path d="M732.4 146.977L732.241 146.125L749.355 142.953L749.512 143.805L732.4 146.977" fill="#FFFAEF"/>
<path d="M750.651 150.693L732.284 149.145L732.356 148.281L750.723 149.831L750.651 150.693" fill="#FFFAEF"/>
<path d="M717.127 149.949H716.26V146.408H717.127V149.949Z" fill="#FFFAEF"/>
<path d="M719.943 152.081C718.669 152.081 717.527 151.545 716.656 150.537C715.8 151.419 714.609 151.944 713.375 151.968C711.967 152.003 710.567 151.359 709.663 150.261L710.331 149.709C711.057 150.591 712.225 151.125 713.357 151.101C714.499 151.079 715.636 150.501 716.328 149.593L716.688 149.121L717.027 149.607C717.837 150.76 718.955 151.313 720.256 151.203C721.612 151.088 722.867 150.223 723.453 148.995L724.235 149.369C723.519 150.868 721.985 151.927 720.328 152.065C720.199 152.077 720.069 152.081 719.943 152.081" fill="#FFFAEF"/>
<path d="M740.607 189.817C738.453 189.817 736.707 188.072 736.707 185.919C736.707 183.771 738.441 182.029 740.585 182.017C740.923 182.012 747.673 181.841 749.501 176.403C751.107 171.625 749.831 164.443 748.188 161.931C747.008 160.129 747.513 157.712 749.315 156.532C751.12 155.353 753.535 155.857 754.713 157.66C757.687 162.201 759.272 171.815 756.895 178.888C753.261 189.693 741.121 189.817 740.607 189.817" fill="#2B2D70"/>
<path d="M721.176 146.132C721.176 147.569 719.168 148.735 716.691 148.735C714.215 148.735 712.207 147.569 712.207 146.132C712.207 144.695 714.215 143.529 716.691 143.529C719.168 143.529 721.176 144.695 721.176 146.132Z" fill="#FFFAEF"/>
<path d="M667.529 186.896V106.733H765.852V110.552H671.349V183.331C670.045 184.488 668.771 185.676 667.529 186.896" fill="#786BBC"/>
<path d="M671.349 205.057H667.529V186.896C668.771 185.676 670.045 184.488 671.349 183.331V205.057Z" fill="#3B3697"/>
<path d="M788.765 100.943C788.765 113.236 778.799 123.203 766.505 123.203C754.211 123.203 744.244 113.236 744.244 100.943C744.244 88.6494 754.211 78.6827 766.505 78.6827C778.799 78.6827 788.765 88.6494 788.765 100.943Z" fill="#D88918"/>
<path d="M787.496 100.943C787.496 113.247 777.521 123.221 765.219 123.221C752.913 123.221 742.94 113.247 742.94 100.943C742.94 88.6387 752.913 78.664 765.219 78.664C777.521 78.664 787.496 88.6387 787.496 100.943Z" fill="#F6EA14"/>
<path d="M752.105 87.8307C759.348 80.5893 771.088 80.5893 778.331 87.8307C785.573 95.072 785.573 106.813 778.331 114.056C771.088 121.297 759.348 121.297 752.105 114.056C744.863 106.813 744.863 95.072 752.105 87.8307Z" fill="#ED9B11"/>
<path d="M754 88.828C760.195 82.632 770.241 82.632 776.436 88.828C782.632 95.0227 782.632 105.068 776.436 111.264C770.241 117.46 760.195 117.46 754 111.264C747.803 105.068 747.803 95.0227 754 88.828Z" fill="#F1A814"/>
<path d="M761.073 108.876H758.495L754.183 102.348V108.876H751.605V98.2929H754.183L758.495 104.851V98.2929H761.073V108.876ZM769.831 98.2929V100.358H765.52V102.59H768.746V104.595H765.52V108.876H762.942V98.2929H769.831ZM778.8 98.2929V100.358H775.996V108.876H773.418V100.358H770.613V98.2929H778.8Z" fill="#F8EE21"/>
</svg>
